# xmcd
#
# Track frame offsets: 
#        150
#        15560
#        67389
#        81839
#        89826
#        106276
#        128219
#        150325
#        178764
#        185872
#        190695
#        209349
#        223900
#        232877
#        253348
#
# Disc length: 4345 seconds
#
# Revision: 0
# Processed by: cddbd v1.4PL0 Copyright (c) Steve Scherf et al.
# Submitted via: ExactAudioCopy v0.90a11
#
DISCID=df10f70f
DTITLE=Buddy Guy - Live: 7-4-92 Crystal Palace London
DYEAR=1900
DGENRE=
TTITLE0=Mary Had a Little Lamb
TTITLE1=Sweet Little Angel
TTITLE2=Crazy 'bout You
TTITLE3=I Just want to Make Love to You
TTITLE4=Walking By Myself
TTITLE5=Stormy Monday
TTITLE6=Someone Else Was Slippin' In
TTITLE7=Sweet Home Chicago
TTITLE8=Got My Eyes On You
TTITLE9=Red House (broken)
TTITLE10=Hoochie Coochie Man
TTITLE11=Rock Me Baby
TTITLE12=Got My Mojo Working
TTITLE13=Mustang Sally
TTITLE14=Knock on Wood
EXTD=
EXTT0=
EXTT1=
EXTT2=
EXTT3=
EXTT4=
EXTT5=
EXTT6=
EXTT7=
EXTT8=
EXTT9=
EXTT10=
EXTT11=
EXTT12=
EXTT13=
EXTT14=
PLAYORDER=
